# xmcd
#
# Track frame offsets: 
#        150
#        26774
#        41933
#        65224
#        91240
#
# Disc length: 1466 seconds
#
# Revision: 1
# Processed by: cddbd v1.4PL0 Copyright (c) Steve Scherf et al.
# Submitted via: ExactAudioCopy v0.90b3
#
DISCID=4405b805
DTITLE=Crooked Fingers - Reservoir Songs EP
DYEAR=2002
DGENRE=
TTITLE0=Sunday Morning Coming Down
TTITLE1=Solitary Man
TTITLE2=When U Were Mine
TTITLE3=The River
TTITLE4=Under Pressure
EXTD=
EXTT0=
EXTT1=
EXTT2=
EXTT3=
EXTT4=
PLAYORDER=
